<?xml version="1.0" encoding="utf-8"?>
<!-- Generator: Adobe Illustrator 14.0.0, SVG Export Plug-In . SVG Version: 6.00 Build 43363)  -->
<!DOCTYPE svg PUBLIC "-//W3C//DTD SVG 1.1//EN" "http://www.w3.org/Graphics/SVG/1.1/DTD/svg11.dtd">
<svg version="1.1" id="Layer_1" xmlns="http://www.w3.org/2000/svg" xmlns:xlink="http://www.w3.org/1999/xlink" x="0px" y="0px"
	 width="463.678px" height="119.435px" viewBox="0 0 463.678 119.435" enable-background="new 0 0 463.678 119.435"
	 xml:space="preserve">
<g>
	<polygon fill="#97421D" points="50.278,111.808 44.979,67.777 163.5,10.449 56.146,74.688 	"/>
	<polygon fill="#F36E3A" points="166.376,8.86 58.213,74.996 98.396,103.297 169.115,7.188 5.494,42.538 43.979,66.806 	"/>
	<polygon fill="#F36E3A" points="57.615,76.296 76.501,89.598 51.555,112.247 	"/>
</g>
<g>
	<path fill="#58595B" d="M167.986,48.064c0-1.781,0.924-2.64,2.705-2.64h13.987c9.039,0,16.165,6.07,16.165,14.978
		c0,8.379-7.191,14.713-15.769,14.713h-12.272v16.759c0,1.649-0.792,2.441-2.375,2.441c-1.649,0-2.441-0.792-2.441-2.441V48.064z
		 M172.803,50.241v20.058h12.008c6.07,0,11.019-3.826,11.019-9.963c0-6.334-5.014-10.095-12.074-10.095H172.803z"/>
	<path fill="#58595B" d="M221.96,56.773c8.775,0,13.394,5.278,13.394,11.942v23.687c0,1.253-0.857,2.441-2.441,2.441
		c-1.583,0-2.375-1.122-2.44-2.376c-0.066-1.253-0.066-1.649-0.066-2.243c-2.837,3.035-7.06,4.619-11.282,4.619
		c-6.466,0-12.668-3.629-12.668-11.019c0-7.72,7.06-11.679,13.987-11.679c3.761,0,7.785,1.122,9.963,3.299v-6.268
		c0-4.553-3.694-7.588-9.896-7.588c-4.289,0-7.061,1.584-9.105,1.584c-1.122,0-2.243-0.528-2.243-2.046
		c0-0.857,0.726-1.913,1.848-2.375C213.91,57.565,217.407,56.773,221.96,56.773z M219.98,90.225c5.015,0,10.358-2.639,10.358-7.191
		c0-4.025-5.014-6.334-9.896-6.334c-4.618,0-9.039,2.111-9.039,6.729C211.403,88.18,215.494,90.225,219.98,90.225z"/>
	<path fill="#58595B" d="M242.878,59.083c0-1.716,0.792-2.573,2.441-2.573s2.441,0.857,2.441,2.573v5.014
		c1.451-4.156,6.399-7.587,10.886-7.587c10.228,0,15.373,9.963,15.373,19.529c0,9.567-5.146,19.068-15.373,19.068
		c-4.684,0-8.973-2.375-10.886-6.532v18.276c0,1.649-1.188,2.639-2.508,2.639c-1.583,0-2.375-0.924-2.375-2.705V59.083z
		 M269.071,76.303c0-6.531-2.639-14.911-9.963-14.911c-7.653,0-10.952,7.72-10.952,14.647c0,7.06,3.299,14.582,10.952,14.582
		C266.433,90.621,269.071,82.967,269.071,76.303z"/>
	<path fill="#58595B" d="M312.093,72.938c0,3.563-0.594,5.344-3.694,5.344h-22.302c0,5.938,5.938,11.942,11.811,11.942
		c3.695,0,6.004-0.726,8.974-3.365c0.857-0.791,1.913-1.188,2.837-1.188c1.253,0,2.177,0.727,2.177,2.243
		c0,0.528-0.132,0.99-0.462,1.32c-3.101,3.893-7.653,5.872-13.525,5.872c-10.887,0-17.022-8.842-17.022-19.266
		c0-9.699,5.674-19.398,15.967-19.398C306.616,56.443,312.093,63.306,312.093,72.938z M307.21,73.532
		c0-6.73-3.893-12.206-10.16-12.206c-6.334,0-10.887,5.608-10.887,12.206H307.21z"/>
	<path fill="#58595B" d="M320.739,59.742c0-1.715,0.792-2.573,2.375-2.573c1.649,0,2.441,0.858,2.441,2.573v3.167
		c2.441-4.354,7.06-6.399,11.546-6.399c3.497,0,4.817,1.583,4.817,3.035c0,1.319-1.056,2.572-2.573,2.572
		c-1.782,0-2.244-0.461-4.487-0.461c-4.288,0-9.303,4.486-9.303,9.566V91.94c0,1.583-0.792,2.375-2.441,2.375
		c-1.583,0-2.375-0.792-2.375-2.375V59.742z"/>
	<path fill="#58595B" d="M390.68,69.508c0,12.733-7.126,25.468-21.312,25.468c-13.922,0-20.981-12.866-20.981-25.666
		c0-12.734,6.994-25.468,20.981-25.468C383.554,43.842,390.68,56.707,390.68,69.508z M353.467,69.178
		c0,10.557,5.41,21.047,16.033,21.047c10.82,0,16.033-10.16,16.033-20.52c0-10.49-5.345-20.915-16.165-20.915
		C358.68,48.79,353.467,58.885,353.467,69.178z"/>
	<path fill="#58595B" d="M402.626,78.349c0,10.161,4.024,12.008,8.38,12.008c5.014,0,10.358-5.08,10.358-14.317V59.545
		c0-1.584,0.527-2.573,2.243-2.573c1.584,0,2.375,0.857,2.375,2.573v33.517c0,1.452-0.791,2.178-2.375,2.178
		c-1.649,0-2.507-0.726-2.507-2.243v-4.421c-2.837,4.685-6.796,6.862-10.688,6.862c-6.467,0-12.668-4.091-12.668-14.978V59.809
		c0-1.649,0.791-2.441,2.375-2.441c1.649,0,2.441,0.792,2.441,2.441L402.626,78.349z"/>
	<path fill="#58595B" d="M437.069,52.419c0-1.584,0.792-2.375,2.376-2.375c1.649,0,2.44,0.791,2.44,2.375v5.41h5.807
		c1.715,0,2.573,0.726,2.573,2.243s-0.792,2.243-2.441,2.243h-5.938v20.189c0,5.278,0.462,7.918,4.816,7.918
		c1.914,0,2.903,0.726,2.903,2.177c0,1.518-0.989,2.31-2.903,2.31c-7.852,0-9.633-4.685-9.633-12.404V62.25h-2.111
		c-1.583,0-2.375-0.727-2.375-2.244c0-1.451,0.66-2.177,2.045-2.177h2.441V52.419z"/>
</g>
</svg>
