<?xml version="1.0" encoding="utf-8"?>
<!-- Generator: Adobe Illustrator 14.0.0, SVG Export Plug-In . SVG Version: 6.00 Build 43363)  -->
<!DOCTYPE svg PUBLIC "-//W3C//DTD SVG 1.1//EN" "http://www.w3.org/Graphics/SVG/1.1/DTD/svg11.dtd">
<svg version="1.1" id="Layer_1" xmlns="http://www.w3.org/2000/svg" xmlns:xlink="http://www.w3.org/1999/xlink" x="0px" y="0px"
	 width="1005.771px" height="237.572px" viewBox="5.494 -125.325 1005.771 237.572"
	 enable-background="new 5.494 -125.325 1005.771 237.572" xml:space="preserve">
<g>
	<g>
		<polygon fill="#97421D" points="106.765,111.256 94.782,11.686 362.797,-117.951 120.035,27.315 		"/>
		<polygon fill="#F36E3A" points="369.3,-121.544 124.708,28.01 215.575,92.008 375.494,-125.325 5.494,-45.388 92.521,9.491 		"/>
		<polygon fill="#F36E3A" points="123.357,30.949 166.063,61.031 109.653,112.247 		"/>
	</g>
	<g>
		<path fill="#58595B" d="M372.94-32.891c0-4.028,2.091-5.971,6.117-5.971h31.63c20.439,0,36.554,13.727,36.554,33.871
			c0,18.947-16.262,33.271-35.658,33.271h-27.752v37.897c0,3.73-1.791,5.521-5.371,5.521c-3.729,0-5.52-1.791-5.52-5.521V-32.891z
			 M383.834-27.969v45.357h27.154c13.726,0,24.917-8.65,24.917-22.529c0-14.323-11.339-22.828-27.304-22.828H383.834z"/>
		<path fill="#58595B" d="M494.993-13.197c19.844,0,30.29,11.934,30.29,27.003v53.565c0,2.833-1.939,5.519-5.521,5.519
			c-3.58,0-5.371-2.535-5.518-5.373c-0.149-2.833-0.149-3.728-0.149-5.07c-6.416,6.861-15.965,10.443-25.513,10.443
			c-14.621,0-28.646-8.206-28.646-24.917c0-17.457,15.965-26.409,31.629-26.409c8.505,0,17.604,2.537,22.53,7.459V14.849
			c0-10.295-8.354-17.159-22.378-17.159c-9.699,0-15.968,3.582-20.59,3.582c-2.537,0-5.072-1.192-5.072-4.626
			c0-1.937,1.642-4.326,4.18-5.371C476.79-11.406,484.698-13.197,494.993-13.197z M490.517,62.449
			c11.341,0,23.422-5.969,23.422-16.262c0-9.103-11.337-14.323-22.378-14.323c-10.441,0-20.44,4.774-20.44,15.217
			C471.12,57.825,480.372,62.449,490.517,62.449z"/>
		<path fill="#58595B" d="M542.296-7.974c0-3.88,1.791-5.819,5.521-5.819c3.728,0,5.519,1.939,5.519,5.819v11.34
			c3.282-9.399,14.472-17.159,24.616-17.159c23.13,0,34.764,22.531,34.764,44.162c0,21.635-11.636,43.119-34.764,43.119
			c-10.591,0-20.29-5.37-24.616-14.771v41.329c0,3.728-2.688,5.967-5.671,5.967c-3.579,0-5.37-2.089-5.37-6.117V-7.974H542.296z
			 M601.527,30.967c0-14.769-5.967-33.719-22.529-33.719c-17.307,0-24.767,17.457-24.767,33.121c0,15.966,7.46,32.975,24.767,32.975
			C595.561,63.344,601.527,46.034,601.527,30.967z"/>
		<path fill="#58595B" d="M698.813,23.357c0,8.056-1.343,12.084-8.353,12.084h-50.434c0,13.429,13.429,27.006,26.71,27.006
			c8.354,0,13.577-1.644,20.292-7.61c1.939-1.789,4.326-2.688,6.415-2.688c2.834,0,4.925,1.645,4.925,5.072
			c0,1.195-0.3,2.239-1.047,2.986c-7.011,8.803-17.304,13.278-30.583,13.278c-24.618,0-38.491-19.994-38.491-43.568
			c0-21.931,12.831-43.864,36.106-43.864C686.429-13.944,698.813,1.576,698.813,23.357z M687.771,24.7
			c0-15.22-8.803-27.602-22.976-27.602c-14.323,0-24.618,12.682-24.618,27.602H687.771z"/>
		<path fill="#58595B" d="M718.365-6.484c0-3.878,1.791-5.819,5.371-5.819c3.728,0,5.519,1.941,5.519,5.819v7.162
			c5.521-9.845,15.966-14.471,26.109-14.471c7.908,0,10.894,3.58,10.894,6.863c0,2.983-2.388,5.817-5.819,5.817
			c-4.03,0-5.074-1.042-10.145-1.042c-9.697,0-21.039,10.145-21.039,21.633v46.85c0,3.58-1.791,5.371-5.519,5.371
			c-3.58,0-5.371-1.791-5.371-5.371V-6.484L718.365-6.484z"/>
		<path fill="#58595B" d="M876.523,15.599c0,28.794-16.114,57.593-48.192,57.593c-31.481,0-47.445-29.094-47.445-58.039
			c0-28.797,15.815-57.593,47.445-57.593C860.409-42.44,876.523-13.347,876.523,15.599z M792.373,14.855
			c0,23.872,12.234,47.594,36.257,47.594c24.468,0,36.256-22.975,36.256-46.403c0-23.722-12.088-47.296-36.555-47.296
			C804.161-31.25,792.373-8.423,792.373,14.855z"/>
		<path fill="#58595B" d="M903.538,35.594c0,22.976,9.101,27.153,18.949,27.153c11.338,0,23.424-11.487,23.424-32.376V-6.93
			c0-3.582,1.19-5.816,5.073-5.816c3.581,0,5.37,1.937,5.37,5.816v75.794c0,3.284-1.789,4.925-5.37,4.925
			c-3.73,0-5.671-1.641-5.671-5.072v-9.997c-6.416,10.593-15.368,15.518-24.168,15.518c-14.624,0-28.646-9.251-28.646-33.871V-6.331
			c0-3.73,1.788-5.521,5.37-5.521c3.728,0,5.521,1.791,5.521,5.521L903.538,35.594z"/>
		<path fill="#58595B" d="M981.426-23.044c0-3.582,1.791-5.371,5.373-5.371c3.728,0,5.517,1.789,5.517,5.371v12.234h13.133
			c3.878,0,5.816,1.643,5.816,5.072c0,3.43-1.791,5.073-5.519,5.073h-13.429v45.653c0,11.936,1.044,17.905,10.892,17.905
			c4.328,0,6.565,1.643,6.565,4.924c0,3.433-2.237,5.223-6.565,5.223c-17.758,0-21.783-10.593-21.783-28.05V-0.813h-4.774
			c-3.58,0-5.371-1.643-5.371-5.075c0-3.279,1.493-4.922,4.625-4.922h5.521V-23.044L981.426-23.044z"/>
	</g>
</g>
</svg>
